# xmcd
#
# Track frame offsets:
#	150
#	12875
#	28397
#	41530
#	51885
#	65480
#	82222
#	94807
#	108757
#	120720
#
# Disc length: 1814 seconds
#
# Revision: 0
# Processed by: cddbd v1.5.1PL2 Copyright (c) Steve Scherf et al.
# Submitted via: audiograbber 1.83.01
#
DISCID=8307140a
DTITLE=Barry White - Shadows Of Love
DYEAR=2000
DGENRE=Blues
TTITLE0=All In A Run Of A Day
TTITLE1=Come On In, Love
TTITLE2=Fragile, Handle With Care
TTITLE3=I Owe It All To You
TTITLE4=I've Got The World To Hold Me Up
TTITLE5=Long Black Veil
TTITLE6=Out Of The Shadows Of Love
TTITLE7=Under The Influence Of Love
TTITLE8=Where Can I Turn To
TTITLE9=Your Heart And Soul
EXTD=
EXTT0=
EXTT1=
EXTT2=
EXTT3=
EXTT4=
EXTT5=
EXTT6=
EXTT7=
EXTT8=
EXTT9=
PLAYORDER=
